<?xml version="1.0" standalone="no"?>
<!DOCTYPE svg PUBLIC "-//W3C//DTD SVG 20010904//EN"
 "http://www.w3.org/TR/2001/REC-SVG-20010904/DTD/svg10.dtd">
<svg version="1.0" xmlns="http://www.w3.org/2000/svg"
 width="700.000000pt" height="700.000000pt" viewBox="0 0 700.000000 700.000000"
 preserveAspectRatio="xMidYMid meet">
<metadata>
Created by potrace 1.14, written by Peter Selinger 2001-2017
</metadata>
<g transform="translate(0.000000,700.000000) scale(0.100000,-0.100000)"
fill="#000000" stroke="none">
<path d="M4990 5421 c-144 -31 -385 -136 -570 -248 -109 -67 -350 -227 -350
-233 0 -3 43 -24 95 -46 l94 -42 39 29 c75 55 308 191 417 244 244 117 428
158 499 111 62 -40 49 -203 -31 -391 -143 -335 -384 -695 -767 -1150 -60 -71
-114 -135 -120 -140 -6 -6 -49 -53 -96 -105 -84 -95 -502 -517 -615 -621 -33
-30 -100 -91 -150 -134 -49 -44 -95 -84 -101 -90 -6 -6 -31 -27 -54 -46 -23
-18 -47 -39 -54 -44 -28 -26 -211 -169 -301 -237 -354 -265 -731 -475 -945
-526 -14 -3 -60 -6 -102 -6 -72 -1 -80 1 -105 27 -26 26 -28 33 -26 105 1 56
9 102 32 172 49 146 170 388 264 528 l29 44 -41 84 c-22 46 -41 89 -41 94 0
26 -21 1 -86 -102 -170 -268 -271 -478 -320 -665 -26 -101 -24 -244 5 -308
134 -299 615 -181 1334 328 47 33 271 202 298 225 165 137 330 276 353 296
322 286 737 711 1000 1026 49 58 98 116 109 130 12 14 78 99 146 190 330 437
552 842 598 1091 4 24 7 82 7 129 -2 234 -168 339 -444 281z"/>
<path d="M3420 4854 c0 -3 18 -24 40 -45 126 -125 167 -319 103 -482 -83 -212
-298 -327 -522 -280 -85 18 -154 56 -222 124 -104 101 -153 255 -128 394 4 22
5 42 3 44 -8 8 -151 -109 -227 -186 -102 -103 -194 -232 -262 -368 -53 -106
-107 -254 -119 -326 -31 -181 -34 -215 -31 -349 4 -165 7 -187 41 -324 46
-185 127 -356 244 -511 62 -82 177 -203 240 -253 l24 -20 66 46 c180 127 578
443 678 539 10 10 70 65 132 123 383 353 772 778 1041 1136 57 76 110 145 117
152 17 19 -9 53 -123 168 -259 259 -604 409 -967 419 -71 2 -128 1 -128 -1z
m525 -741 c11 -6 32 -24 47 -40 99 -104 37 -277 -107 -299 -163 -24 -269 178
-157 298 20 21 54 45 75 52 40 13 106 8 142 -11z m-1034 -387 c20 -3 56 -13
80 -22 218 -86 337 -322 273 -544 -55 -190 -210 -314 -410 -327 -183 -12 -346
84 -428 252 -37 75 -48 121 -47 200 1 50 2 63 17 120 25 105 118 217 223 274
93 49 176 63 292 47z"/>
<path d="M4819 3612 c-100 -123 -270 -322 -344 -401 -151 -163 -224 -238 -355
-369 -234 -233 -484 -460 -690 -626 -52 -42 -102 -82 -110 -89 -8 -6 -47 -37
-87 -69 l-73 -56 52 -12 c153 -33 421 -34 571 -2 462 100 836 393 1027 807 18
39 36 77 41 86 13 28 67 221 74 264 3 22 9 65 14 95 9 53 8 315 -2 355 -2 11
-8 41 -11 67 -4 26 -10 50 -14 52 -4 2 -46 -44 -93 -102z"/>
</g>
</svg>
