<svg style="margin-bottom: 50px; transform: scale(1);" xmlns="http://www.w3.org/2000/svg" xmlns:xlink="http://www.w3.org/1999/xlink" viewBox="0 0 444 105" width="1296"  height="306" ><defs><linearGradient id="a" x1="-625.59" y1="608.66" x2="-624.59" y2="608.66" gradientTransform="matrix(444, 0, 0, -105, 277761, 63962)" gradientUnits="userSpaceOnUse"><stop offset="0" stop-color="#2d388a"></stop><stop offset="1" stop-color="#00aeef"></stop></linearGradient><linearGradient id="a" x1="-625.59" y1="608.66" x2="-624.59" y2="608.66" gradientTransform="matrix(444, 0, 0, -105, 277761, 63962)" gradientUnits="userSpaceOnUse"><stop offset="0" stop-color="#2d388a"></stop><stop offset="1" stop-color="#00aeef"></stop></linearGradient></defs><rect width="444" height="105" rx="10" fill="url(&quot;#a&quot;)"></rect><path d="M34.47,36a.48.48,0,0,1,.48-.47h6.1a.48.48,0,0,1,.48.47V70a.48.48,0,0,1-.48.48H35.16a.49.49,0,0,1-.47-.27L27,52.76V70a.48.48,0,0,1-.48.48h-6A.43.43,0,0,1,20,70V36a.43.43,0,0,1,.42-.47h6.26a.42.42,0,0,1,.37.26l7.42,17.13Zm3.82,31.34V38.66c0-.37-.69-.48-.69,0V65.91L23.76,38.55c-.15-.21-.58-.21-.58.11V67.24a.32.32,0,1,0,.64,0V40L37.6,67.34C37.81,67.71,38.29,67.61,38.29,67.29ZM64,35c4.56,0,7.74,1,9.76,3.18,1.59,1.75,2.33,4.24,2.33,7.79v14c0,3.66-.74,6.2-2.33,7.9C71.68,69.94,68.55,71,64,71c-4.72,0-7.79-1.06-9.81-3.18-1.53-1.7-2.38-4.24-2.38-7.9V46c0-3.55.85-6,2.38-7.84C56.25,36,59.38,35,64,35Zm5,23.33V47.72c0-4.66-2.49-5.62-4.77-5.62h-.64c-3.39,0-4.72,2.18-4.72,5.62V58.33C58.9,63,61.39,64,63.62,64h.64C67.65,64,69,61.72,69,58.33Zm-13.89-12V59.49a8.38,8.38,0,0,0,2.12,6.1,8.43,8.43,0,0,0,6.1,2.12h1.37c5,0,8.22-3.18,8.22-8.22V46.35C73,40.94,70.09,38,64.73,38H63.36C58,38,55.14,40.94,55.14,46.35ZM64.73,67H63.36a6.91,6.91,0,0,1-7.69-7.53V46.35c0-5,2.7-7.69,7.69-7.69h1.37c5,0,7.53,2.6,7.53,7.69V59.49a7.62,7.62,0,0,1-2.12,5.62A8.25,8.25,0,0,1,64.73,67ZM90.86,35.8l5.83,22,6-22c.11-.16.21-.32.42-.32h6.05a.42.42,0,0,1,.42.58L100.4,70.15c-.11.21-.21.32-.42.32H93.4a.39.39,0,0,1-.37-.32L83.86,36.06a.48.48,0,0,1,.48-.58h6.09C90.65,35.48,90.75,35.64,90.86,35.8Zm5.72,31L87.73,38.55c-.16-.42-.74-.16-.58.16L96,67c.21.8,1.06.85,1.32,0l8.49-28.31c.1-.32-.48-.53-.59-.16Zm28-31c.06-.16.16-.32.37-.32h6.58a.4.4,0,0,1,.37.32l9.17,34.09a.48.48,0,0,1-.48.58h-6a.39.39,0,0,1-.37-.32l-2.07-7.42h-7.74l-2,7.42c-.06.21-.16.32-.37.32h-6.1a.48.48,0,0,1-.48-.58Zm1.49,20.35h4.4l-2.28-8Zm8.16,3.13,2.44,8c.11.31.69.26.53-.16L128.7,38.87a.62.62,0,0,0-1.22,0l-8.22,28.21c-.16.37.43.53.58.21l2.34-8Zm-11.87-.69,5.78-19.51L134,58.59Z" fill="#CFDCFC"></path><path d="M204.09,63.11A155.71,155.71,0,0,1,187.7,77.44a24.14,24.14,0,0,0,29.91-23.52,23.92,23.92,0,0,0-.61-5.33A162.43,162.43,0,0,1,204.09,63.11Z" fill="#CFDCFC"></path><path d="M178.41,72.91a134.36,134.36,0,0,0,19.26-16.22,139.78,139.78,0,0,0,14.94-17.45,24.16,24.16,0,0,0-19.22-9.54c-.5,0-1,.05-1.47.07a7.55,7.55,0,1,1-12.15,6,7.37,7.37,0,0,1,.31-2,24.16,24.16,0,0,0-1.67,39.21Zm21-31.11a3,3,0,1,1-3,3A3,3,0,0,1,199.44,41.8Zm-17.23,6.69a7.57,7.57,0,1,1-7.57,7.56A7.58,7.58,0,0,1,182.21,48.49Z" fill="#CFDCFC"></path><path d="M224.43,21.36c-4.18-4.17-14.78,2.14-21.63,7A30.15,30.15,0,0,1,206,29.79c9.66-6.6,15-7.51,16.26-6.29,1.05,1,.7,4.87-3.71,12.22-4.18,7-10.85,15.17-18.77,23.1C181.91,76.72,167.17,84,164.49,81.3c-1.12-1.12-.43-5.77,5-14.27a27.19,27.19,0,0,1-1.5-3.24c-4.61,6.83-9.44,15.9-5.69,19.65a5.13,5.13,0,0,0,3.78,1.36c7.89,0,22.95-11,35.83-23.83,8.09-8.1,14.92-16.51,19.23-23.69C226,29.33,227,24,224.43,21.36Z" fill="#CFDCFC"></path><path d="M259.94,49c4,1.91,9.28,4.93,9.28,10.39a13.35,13.35,0,0,1-2,7.26c-2,2.92-5,4.35-9.28,4.35-4.51,0-9.76-2.17-11.4-7.1a.37.37,0,0,1,.16-.43l4.88-4.19a.46.46,0,0,1,.69.11c.1.26.31.69.58,1.22a5.79,5.79,0,0,0,4.82,3.29c1.65,0,3.87-.91,3.87-3.45s-3.34-3.82-5.4-4.61a24,24,0,0,1-6.9-4A9,9,0,0,1,246,45c0-6.63,6.1-10,11.88-10,4.56,0,7.95,2.39,10.18,7.1a.5.5,0,0,1-.16.59L263.18,46c-.21.11-.32.11-.53-.15-1.8-2.6-3.4-3.82-5.52-3.82-1.11,0-3.71.42-3.71,2.38,0,2.39,4.4,3.61,6.52,4.62Zm-9.65,14.63c1.33,2.65,5,4.19,8,4.19a7.26,7.26,0,0,0,7.42-6.68c.53-4.93-3.34-7-7.16-9l-1.69-.74c-3.93-1.75-6.79-3.08-6.79-6.74,0-4,3.71-5.88,7.37-5.88a7.13,7.13,0,0,1,6,3.18c.32.42.85,0,.53-.37a8,8,0,0,0-6.52-3.45c-4.19,0-8,2.07-8,6.52,0,4,3.18,5.52,7.21,7.37l1.65.8c5.25,2.49,7.16,4.82,6.73,8.22-.79,5.4-4.93,6.09-6.73,6.09a8.64,8.64,0,0,1-7.43-3.87A.32.32,0,0,0,250.29,63.63Zm31.85-27.89,4.62,8.91,4.5-8.91c.16-.26.22-.26.43-.26h5.94a.44.44,0,0,1,.42.58l-7.69,17.87V70a.47.47,0,0,1-.47.48h-6.26a.47.47,0,0,1-.37-.48V53.93l-7.9-17.76c-.11-.37.05-.69.42-.69h5.94C281.93,35.48,282,35.48,282.14,35.74Zm4.88,17,6.63-13.79c.16-.31-.37-.58-.58-.21l-6.31,13.2-6.47-13.2c-.21-.37-.8-.1-.64.27l6.79,13.73V67.34a.29.29,0,1,0,.58,0ZM318.18,49c4,1.91,9.28,4.93,9.28,10.39a13.35,13.35,0,0,1-2,7.26c-2,2.92-5,4.35-9.28,4.35-4.51,0-9.76-2.17-11.4-7.1a.37.37,0,0,1,.16-.43l4.88-4.19a.46.46,0,0,1,.69.11c.1.26.31.69.58,1.22a5.79,5.79,0,0,0,4.82,3.29c1.65,0,3.87-.91,3.87-3.45s-3.34-3.82-5.4-4.61a24,24,0,0,1-6.9-4A9,9,0,0,1,304.24,45c0-6.63,6.1-10,11.88-10,4.55,0,7.95,2.39,10.17,7.1a.49.49,0,0,1-.15.59L321.42,46c-.21.11-.32.11-.53-.15-1.81-2.6-3.4-3.82-5.52-3.82-1.11,0-3.71.42-3.71,2.38C311.66,46.77,316.06,48,318.18,49Zm-9.65,14.63c1.33,2.65,5,4.19,8,4.19a7.27,7.27,0,0,0,7.42-6.68c.53-4.93-3.34-7-7.16-9l-1.7-.74c-3.92-1.75-6.78-3.08-6.78-6.74,0-4,3.71-5.88,7.37-5.88a7.13,7.13,0,0,1,6,3.18c.32.42.85,0,.53-.37a8,8,0,0,0-6.52-3.45c-4.19,0-8,2.07-8,6.52,0,4,3.18,5.52,7.21,7.37l1.65.8c5.25,2.49,7.15,4.82,6.73,8.22-.8,5.4-4.93,6.09-6.73,6.09a8.64,8.64,0,0,1-7.43-3.87.32.32,0,0,0-.53.32ZM341.87,42.1h-7.53a.47.47,0,0,1-.48-.47V36a.47.47,0,0,1,.48-.47h22.11a.48.48,0,0,1,.48.47v5.68a.48.48,0,0,1-.48.47h-7.53V70a.47.47,0,0,1-.48.48h-6.09a.47.47,0,0,1-.48-.48Zm11.34-3.71h-16c-.37,0-.37.69,0,.69h7.85v28.1c0,.37.69.37.69,0V39.08h7.47a.35.35,0,1,0,0-.69Zm12.55,32.08a.43.43,0,0,1-.42-.48V36a.43.43,0,0,1,.42-.47h18a.47.47,0,0,1,.48.47v5.68a.47.47,0,0,1-.48.47H372.34v7.22h8.91a.43.43,0,0,1,.42.47v5.78a.43.43,0,0,1-.42.48h-8.91v7.79h11.45a.47.47,0,0,1,.48.48V70a.47.47,0,0,1-.48.48Zm2.66-31.65V67a.39.39,0,0,0,.42.43H381c.48,0,.38-.64,0-.64H369.11V53h9.75c.32,0,.32-.74,0-.74h-9.75V39.08H381c.38,0,.48-.69,0-.69H368.84A.42.42,0,0,0,368.42,38.82Zm55.07-3.34A.48.48,0,0,1,424,36V70a.48.48,0,0,1-.48.48h-5.78a.51.51,0,0,1-.43-.48V50.38l-5.83,19.77c-.1.21-.21.32-.42.32h-4.19a.44.44,0,0,1-.42-.32L401,50V70a.48.48,0,0,1-.48.48h-5.89c-.21,0-.37-.21-.37-.48V36a.42.42,0,0,1,.37-.47H402a.53.53,0,0,1,.47.32l6.42,21.47,7-21.47a.36.36,0,0,1,.37-.32ZM420.2,67.24c0,.37.69.47.69,0V38.66a.35.35,0,0,0-.32-.27h-2.49c-.21,0-.26.16-.37.27l-8.8,26.24-8.75-26.29c0-.16-.11-.22-.27-.22H397.3a.34.34,0,0,0-.32.32V67.24c0,.37.69.47.69,0V39.08h2l9,26.94c.21.37.37.26.64,0l9-26.94h2V67.24Z" fill="#CFDCFC"></path></svg>